<svg width="616" height="354" viewBox="0 0 616 354" fill="none" xmlns="http://www.w3.org/2000/svg">
<path fill-rule="evenodd" clip-rule="evenodd" d="M493.967 22.0408C493.967 9.86801 484.099 0 471.927 0H22.0408C9.86801 0 0 9.86803 0 22.0408V331.959C0 344.132 9.86801 354 22.0408 354H593.959C606.132 354 616 344.132 616 331.959V116.16C616 103.987 606.132 94.1191 593.959 94.1191L516.008 94.1191C503.835 94.1191 493.967 84.2511 493.967 72.0783V22.0408Z" fill="#EEF0F5"/>
<rect x="519" y="3" width="74" height="74" rx="16.1455" fill="url(#paint0_linear_3_290)" fill-opacity="0.1"/>
<g clip-path="url(#clip0_3_290)">
<path d="M555.955 16.4546L554.838 16.9833L534.276 25.6196L532.455 26.3833V28.2046C532.455 37.9571 536.391 46.5346 541.091 52.8208C543.441 55.9346 545.967 58.5196 548.435 60.3408C550.902 62.1621 553.311 63.4546 555.955 63.4546C558.657 63.4546 561.007 62.1621 563.475 60.3408C565.942 58.5196 568.468 55.9346 570.818 52.8208C575.518 46.5346 579.455 37.9571 579.455 28.2046V26.3833L577.633 25.6196L557.071 16.9833L555.955 16.4546ZM555.955 22.8583V57.5796C555.72 57.5796 554.016 57.1683 552.077 55.7583C550.138 54.3483 547.906 52.0571 545.85 49.3546C541.677 43.7433 539.191 37.0587 538.682 30.0846L555.955 22.9171V22.8583Z" fill="black"/>
</g>
<defs>
<linearGradient id="paint0_linear_3_290" x1="438.063" y1="-13.6501" x2="744.238" y2="158.862" gradientUnits="userSpaceOnUse">
<stop offset="0.065" stop-color="#F72F41"/>
<stop offset="0.45" stop-color="#698FF3"/>
<stop offset="0.88" stop-color="#AEC1F3"/>
</linearGradient>
<clipPath id="clip0_3_290">
<rect width="47" height="47" fill="white" transform="translate(532.455 16.4546)"/>
</clipPath>
</defs>
</svg>
