<svg width="616" height="358" viewBox="0 0 616 358" fill="none" xmlns="http://www.w3.org/2000/svg">
<path fill-rule="evenodd" clip-rule="evenodd" d="M493.967 22.0408C493.967 9.86801 484.099 0 471.927 0H22.0408C9.86801 0 0 9.86803 0 22.0408V335.959C0 348.132 9.86801 358 22.0408 358H593.959C606.132 358 616 348.132 616 335.959V117.223C616 105.051 606.132 95.1826 593.959 95.1826L516.008 95.1826C503.835 95.1826 493.967 85.3146 493.967 73.1418V22.0408Z" fill="#EEF0F5"/>
<rect x="519" y="3" width="74" height="74" rx="16.1455" fill="url(#paint0_linear_3_289)" fill-opacity="0.1"/>
<g clip-path="url(#clip0_3_289)">
<path d="M555.824 39.0407C559.349 39.0407 562.091 36.1685 562.091 32.6435C562.091 29.1185 559.218 26.3768 555.693 26.3768C552.168 26.3768 549.427 29.2491 549.427 32.6435C549.427 36.1685 552.299 39.0407 555.824 39.0407ZM555.693 28.9879C555.824 28.9879 555.824 28.9879 555.693 28.9879C557.782 28.9879 559.48 30.6852 559.48 32.7741C559.48 34.8629 557.782 36.4296 555.693 36.4296C553.605 36.4296 552.038 34.7324 552.038 32.7741C552.038 30.6852 553.735 28.9879 555.693 28.9879Z" fill="black"/>
<path d="M575.146 38.2574C572.666 36.0379 569.402 34.8629 566.007 34.9935H564.963C564.702 36.0379 564.31 36.9518 563.788 37.7351C564.571 37.6046 565.224 37.6046 566.007 37.6046C568.488 37.474 570.969 38.2574 572.927 39.6935V49.0935H575.538V38.649L575.146 38.2574Z" fill="black"/>
<path d="M563.005 26.6379C563.657 25.0713 565.485 24.2879 567.182 24.9407C568.749 25.5935 569.532 27.4213 568.88 29.1185C568.357 30.2935 567.182 31.0768 566.007 31.0768C565.746 31.0768 565.355 31.0768 565.093 30.9463C565.224 31.599 565.224 32.2518 565.224 32.774V33.5574C565.485 33.5574 565.746 33.6879 566.007 33.6879C569.271 33.6879 571.882 31.0768 571.882 27.9435C571.882 24.6796 569.271 22.0685 566.138 22.0685C564.049 22.0685 562.221 23.1129 561.177 24.9407C561.83 25.3324 562.482 25.8546 563.005 26.6379Z" fill="black"/>
<path d="M548.121 37.8656C547.599 37.0823 547.207 36.1684 546.946 35.124H545.902C542.507 34.9934 539.243 36.1684 536.763 38.2573L536.371 38.649V49.0934H538.982V39.6934C541.071 38.2573 543.421 37.474 545.902 37.6045C546.685 37.6045 547.468 37.7351 548.121 37.8656Z" fill="black"/>
<path d="M545.902 33.5574C546.163 33.5574 546.424 33.5574 546.685 33.4268V32.6435C546.685 31.9907 546.685 31.3379 546.816 30.8157C546.555 30.9463 546.163 30.9463 545.902 30.9463C544.205 30.9463 542.768 29.5102 542.768 27.8129C542.768 26.1157 544.205 24.6796 545.902 24.6796C547.207 24.6796 548.382 25.4629 548.905 26.6379C549.427 25.9852 550.21 25.3324 550.863 24.8102C549.166 22.0685 545.641 21.1546 542.899 22.8518C540.157 24.5491 539.243 28.0741 540.941 30.8157C541.985 32.5129 543.813 33.5574 545.902 33.5574Z" fill="black"/>
<path d="M566.53 46.0908L566.268 45.6991C563.657 42.8269 560.002 41.1296 556.085 41.2602C552.168 41.1296 548.382 42.8269 545.771 45.6991L545.51 46.0908V56.013C545.51 57.188 546.424 58.2324 547.73 58.2324H564.441C565.616 58.2324 566.66 57.188 566.66 56.013V46.0908H566.53ZM563.918 55.6213H548.121V47.0046C550.21 44.9158 553.082 43.8713 556.085 43.8713C558.957 43.7408 561.83 44.9158 563.918 47.0046V55.6213Z" fill="black"/>
</g>
<defs>
<linearGradient id="paint0_linear_3_289" x1="438.063" y1="-13.6501" x2="744.238" y2="158.862" gradientUnits="userSpaceOnUse">
<stop offset="0.065" stop-color="#F72F41"/>
<stop offset="0.45" stop-color="#698FF3"/>
<stop offset="0.88" stop-color="#AEC1F3"/>
</linearGradient>
<clipPath id="clip0_3_289">
<rect width="47" height="47" fill="white" transform="translate(532.455 16.4546)"/>
</clipPath>
</defs>
</svg>
