<svg width="616" height="356" viewBox="0 0 616 356" fill="none" xmlns="http://www.w3.org/2000/svg">
<path fill-rule="evenodd" clip-rule="evenodd" d="M493.967 22.0408C493.967 9.86801 484.099 0 471.927 0H22.0408C9.86801 0 0 9.86803 0 22.0408V333.959C0 346.132 9.86801 356 22.0408 356H593.959C606.132 356 616 346.132 616 333.959V116.692C616 104.519 606.132 94.6508 593.959 94.6508L516.008 94.6508C503.835 94.6508 493.967 84.7828 493.967 72.61V22.0408Z" fill="#EEF0F5"/>
<rect x="519" y="8" width="74" height="74" rx="16.1455" fill="url(#paint0_linear_1_88)" fill-opacity="0.1"/>
<path d="M555.953 56.7601C562.442 56.7601 567.702 51.4998 567.702 45.0109C567.702 38.5221 562.442 33.2618 555.953 33.2618C549.464 33.2618 544.204 38.5221 544.204 45.0109C544.204 51.4998 549.464 56.7601 555.953 56.7601Z" stroke="black" stroke-width="2"/>
<path d="M555.953 48.9273C553.79 48.9273 552.036 47.1739 552.036 45.0109C552.036 42.848 553.79 41.0945 555.953 41.0945C558.116 41.0945 559.869 42.848 559.869 45.0109C559.869 47.1739 558.116 48.9273 555.953 48.9273Z" fill="black"/>
<path d="M536.371 31.9561C536.371 31.9561 546.162 16.9433 563.133 22.8179C580.104 28.6925 579.451 45.6635 579.451 45.6635M575.535 58.0654C575.535 58.0654 567.702 72.4255 550.078 67.8564C532.455 63.2872 532.455 45.0108 532.455 45.0108V65.8982M579.451 24.1233V45.0108" stroke="black" stroke-width="2" stroke-linecap="round" stroke-linejoin="round"/>
<defs>
<linearGradient id="paint0_linear_1_88" x1="438.063" y1="-8.65006" x2="744.238" y2="163.862" gradientUnits="userSpaceOnUse">
<stop offset="0.065" stop-color="#F72F41"/>
<stop offset="0.45" stop-color="#698FF3"/>
<stop offset="0.88" stop-color="#AEC1F3"/>
</linearGradient>
</defs>
</svg>
