<svg width="26" height="26" viewBox="0 0 26 26" fill="none" xmlns="http://www.w3.org/2000/svg">
<path d="M13.2778 0.579346C11.6062 0.579346 9.95096 0.90859 8.40661 1.54828C6.86227 2.18797 5.45904 3.12557 4.27705 4.30757C1.88991 6.69471 0.548828 9.93236 0.548828 13.3083C0.548828 18.9345 4.20203 23.7078 9.25542 25.4008C9.89187 25.5026 10.0955 25.108 10.0955 24.7643V22.6131C6.56962 23.3769 5.81861 20.9075 5.81861 20.9075C5.23308 19.4309 4.4057 19.0363 4.4057 19.0363C3.24736 18.2471 4.4948 18.2726 4.4948 18.2726C5.76769 18.3617 6.44233 19.5837 6.44233 19.5837C7.54974 21.5185 9.4209 20.9456 10.1464 20.6402C10.261 19.8128 10.592 19.2527 10.9484 18.9345C8.12255 18.6163 5.1567 17.5216 5.1567 12.6718C5.1567 11.2589 5.6404 10.126 6.46778 9.22229C6.34049 8.90407 5.89498 7.58026 6.59507 5.86186C6.59507 5.86186 7.6643 5.51817 10.0955 7.16021C11.1011 6.88017 12.1958 6.74015 13.2778 6.74015C14.3597 6.74015 15.4544 6.88017 16.46 7.16021C18.8912 5.51817 19.9605 5.86186 19.9605 5.86186C20.6605 7.58026 20.215 8.90407 20.0877 9.22229C20.9151 10.126 21.3988 11.2589 21.3988 12.6718C21.3988 17.5343 18.4203 18.6035 15.5817 18.9217C16.0399 19.3163 16.46 20.0928 16.46 21.2766V24.7643C16.46 25.108 16.6637 25.5153 17.3128 25.4008C22.3662 23.6951 26.0067 18.9345 26.0067 13.3083C26.0067 11.6367 25.6775 9.98148 25.0378 8.43713C24.3981 6.89278 23.4605 5.48956 22.2785 4.30757C21.0965 3.12557 19.6933 2.18797 18.1489 1.54828C16.6046 0.90859 14.9494 0.579346 13.2778 0.579346Z" fill="#04060B"/>
</svg>
