<svg width="44" height="44" viewBox="0 0 44 44" fill="none" xmlns="http://www.w3.org/2000/svg">
<path d="M31.3175 10.5439C31.9927 10.5439 32.6402 10.8122 33.1176 11.2896C33.595 11.767 33.8633 12.4145 33.8633 13.0897V30.9102C33.8633 31.5854 33.595 32.233 33.1176 32.7104C32.6402 33.1878 31.9927 33.456 31.3175 33.456H13.497C12.8218 33.456 12.1742 33.1878 11.6968 32.7104C11.2194 32.233 10.9512 31.5854 10.9512 30.9102V13.0897C10.9512 12.4145 11.2194 11.767 11.6968 11.2896C12.1742 10.8122 12.8218 10.5439 13.497 10.5439H31.3175ZM30.681 30.2738V23.5275C30.681 22.4269 30.2438 21.3714 29.4656 20.5932C28.6874 19.815 27.6319 19.3778 26.5314 19.3778C25.4494 19.3778 24.1893 20.0397 23.5783 21.0326V19.6197H20.0269V30.2738H23.5783V23.9984C23.5783 23.0183 24.3675 22.2164 25.3476 22.2164C25.8202 22.2164 26.2735 22.4041 26.6077 22.7383C26.9419 23.0725 27.1297 23.5258 27.1297 23.9984V30.2738H30.681ZM15.89 17.6212C16.4572 17.6212 17.0011 17.3959 17.4021 16.9949C17.8032 16.5939 18.0285 16.0499 18.0285 15.4828C18.0285 14.299 17.0738 13.3316 15.89 13.3316C15.3195 13.3316 14.7723 13.5582 14.3689 13.9617C13.9655 14.3651 13.7388 14.9122 13.7388 15.4828C13.7388 16.6666 14.7062 17.6212 15.89 17.6212ZM17.6593 30.2738V19.6197H14.1334V30.2738H17.6593Z" fill="#04060B"/>
</svg>
