<svg width="55" height="55" viewBox="0 0 55 55" fill="none" xmlns="http://www.w3.org/2000/svg">
<rect width="55" height="55" rx="12" fill="#698FF3"/>
<path d="M21.5281 32.7427C21.009 32.7441 20.501 32.5915 20.0685 32.3043C19.6361 32.0171 19.2985 31.608 19.0985 31.1289C18.8984 30.6498 18.845 30.1222 18.9449 29.6127C19.0447 29.1032 19.2934 28.6348 19.6595 28.2667C20.0256 27.8985 20.4927 27.6472 21.0016 27.5445C21.5105 27.4418 22.0384 27.4924 22.5186 27.6897C22.9988 27.887 23.4097 28.2224 23.6994 28.6532C23.989 29.0841 24.1444 29.5912 24.1458 30.1104V30.1249C24.1458 30.8192 23.87 31.485 23.3791 31.9759C22.8882 32.4669 22.2224 32.7427 21.5281 32.7427ZM21.5281 32.7427H21.5135M39.0281 22.177L41.0187 20.2083C41.4538 19.7737 41.6985 19.1841 41.6989 18.5692C41.6993 17.9543 41.4555 17.3643 41.0209 16.9292L41.0187 16.927C40.8031 16.7092 40.5465 16.5363 40.2636 16.4183C39.9808 16.3003 39.6773 16.2395 39.3708 16.2395C39.0643 16.2395 38.7609 16.3003 38.478 16.4183C38.1952 16.5363 37.9385 16.7092 37.7229 16.927L35.7396 18.8958C33.3315 17.1609 30.4388 16.2274 27.4708 16.2274C24.5029 16.2274 21.6102 17.1609 19.2021 18.8958L17.2917 16.9562C16.8545 16.5183 16.2613 16.272 15.6425 16.2715C15.0238 16.2709 14.4301 16.5162 13.9922 16.9533L13.9885 16.9562C13.5548 17.3921 13.3114 17.9819 13.3114 18.5968C13.3114 19.2117 13.5548 19.8016 13.9885 20.2374L15.9719 22.1916C14.228 24.602 13.2866 27.4999 13.2812 30.4749V37.2489C13.2813 37.6453 13.4387 38.0256 13.7191 38.3059C13.9994 38.5862 14.3796 38.7437 14.776 38.7437H40.224C40.614 38.7342 40.985 38.5725 41.2574 38.2932C41.5299 38.0139 41.6824 37.6391 41.6823 37.2489V30.4749C41.6926 27.4986 40.7638 24.5949 39.0281 22.177ZM33.4916 31.6416C33.1902 31.6441 32.8948 31.5571 32.6429 31.3917C32.3909 31.2262 32.1936 30.9898 32.076 30.7123C31.9584 30.4348 31.9258 30.1286 31.9822 29.8325C32.0386 29.5365 32.1815 29.2638 32.3929 29.0489C32.6043 28.834 32.8746 28.6867 33.1697 28.6255C33.4649 28.5643 33.7715 28.592 34.0509 28.705C34.3303 28.8181 34.5699 29.0115 34.7394 29.2607C34.9089 29.51 35.0007 29.8039 35.0031 30.1053V30.122C35.0031 30.9606 34.3228 31.6416 33.4835 31.6416H33.4916Z" stroke="white" stroke-width="2" stroke-linecap="round" stroke-linejoin="round"/>
<path d="M37.779 30.6829C37.8033 30.4952 37.8165 30.3068 37.8184 30.1177C37.8175 29.929 37.8043 29.7405 37.779 29.5534L39.0011 28.596C39.0563 28.5539 39.0941 28.4929 39.1071 28.4246C39.1202 28.3564 39.1076 28.2858 39.0718 28.2263L37.9139 26.2189C37.88 26.1591 37.8256 26.1135 37.7607 26.0907C37.6958 26.0679 37.6249 26.0694 37.561 26.0949L36.1187 26.6768C35.8188 26.447 35.4904 26.2571 35.1416 26.1117L34.9243 24.579C34.9144 24.5114 34.8803 24.4496 34.8285 24.405C34.7767 24.3604 34.7105 24.336 34.6422 24.3362H32.322C32.2535 24.3358 32.1871 24.3602 32.1352 24.4048C32.0832 24.4494 32.049 24.5112 32.039 24.579L31.8217 26.1117C31.473 26.2571 31.1446 26.447 30.8447 26.6768L29.3973 26.0949C29.3334 26.0694 29.2624 26.0679 29.1976 26.0907C29.1327 26.1135 29.0782 26.1591 29.0443 26.2189L27.8864 28.2263C27.8507 28.2858 27.8381 28.3564 27.8512 28.4246C27.8642 28.4929 27.902 28.5539 27.9572 28.596L29.1771 29.5534C29.1533 29.7406 29.1399 29.929 29.137 30.1177C29.1389 30.3073 29.152 30.4955 29.1763 30.6821L27.9572 31.6395C27.902 31.6816 27.8642 31.7426 27.8512 31.8108C27.8381 31.8791 27.8507 31.9497 27.8864 32.0092L29.0436 34.0166C29.1136 34.1406 29.2646 34.1945 29.3965 34.1406L30.8396 33.5594C31.14 33.7884 31.4681 33.978 31.8166 34.1238L32.0339 35.6565C32.0439 35.7241 32.0779 35.7859 32.1298 35.8305C32.1816 35.8751 32.2478 35.8995 32.3161 35.8993H34.6312C34.7727 35.9008 34.8937 35.7972 34.9134 35.6565L35.1307 34.1238C35.4794 33.9786 35.8078 33.7889 36.1078 33.5594L37.5501 34.1406C37.6821 34.1945 37.8337 34.1406 37.903 34.0166L39.0602 32.0092C39.0959 31.9497 39.1085 31.8791 39.0955 31.8108C39.0824 31.7426 39.0447 31.6816 38.9895 31.6395L37.779 30.6829Z" stroke="white" stroke-width="2" stroke-linecap="round" stroke-linejoin="round"/>
</svg>
