<svg width="55" height="55" viewBox="0 0 55 55" fill="none" xmlns="http://www.w3.org/2000/svg">
<rect width="55" height="55" rx="12" fill="#698FF3"/>
<path d="M18.056 35.515L24.144 29.365L27.434 32.515L31.455 29L33.695 31.184M38 21.5C38 21.1022 37.842 20.7206 37.5607 20.4393C37.2794 20.158 36.8978 20 36.5 20H19.5C19.1022 20 18.7206 20.158 18.4393 20.4393C18.158 20.7206 18 21.1022 18 21.5V26H38V21.5Z" stroke="white" stroke-width="2" stroke-linecap="round" stroke-linejoin="round"/>
<path d="M38 25V34.5C38 34.8978 37.842 35.2794 37.5607 35.5607C37.2794 35.842 36.8978 36 36.5 36H22M25.556 23H34.556M21.555 23H22.555M18 25V29.5" stroke="white" stroke-width="2" stroke-linecap="round" stroke-linejoin="round"/>
</svg>
