<svg width="55" height="55" viewBox="0 0 55 55" fill="none" xmlns="http://www.w3.org/2000/svg">
<rect width="55" height="55" rx="12" fill="#698FF3"/>
<path d="M42.0833 42.0833H12.9166" stroke="white" stroke-width="1.5" stroke-linecap="round"/>
<path d="M40.625 42.0833V31.1458C40.625 30.5656 40.3945 30.0092 39.9843 29.599C39.5741 29.1887 39.0177 28.9583 38.4375 28.9583H34.0625C33.4823 28.9583 32.9259 29.1887 32.5157 29.599C32.1055 30.0092 31.875 30.5656 31.875 31.1458V42.0833" stroke="white" stroke-width="1.5"/>
<path d="M31.875 42.0833V23.125M23.125 42.0833V17.2916C23.125 15.2295 23.125 14.1985 23.7667 13.5583C24.4054 12.9166 25.4365 12.9166 27.5 12.9166C29.5635 12.9166 30.5931 12.9166 31.2333 13.5583C31.875 14.197 31.875 15.2281 31.875 17.2916" stroke="white" stroke-width="1.5" stroke-linecap="round" stroke-linejoin="round"/>
<path d="M23.125 42.0833V23.8541C23.125 23.274 22.8945 22.7176 22.4843 22.3073C22.0741 21.8971 21.5177 21.6666 20.9375 21.6666H16.5625C15.9823 21.6666 15.4259 21.8971 15.0157 22.3073C14.6055 22.7176 14.375 23.274 14.375 23.8541V33.3333M14.375 42.0833V38.802" stroke="white" stroke-width="1.5" stroke-linecap="round"/>
</svg>
