<svg width="55" height="55" viewBox="0 0 55 55" fill="none" xmlns="http://www.w3.org/2000/svg">
<rect width="55" height="55" rx="12" fill="#698FF3"/>
<path d="M34.0625 29.6875C35.2706 29.6875 36.25 28.7081 36.25 27.5C36.25 26.2919 35.2706 25.3125 34.0625 25.3125C32.8544 25.3125 31.875 26.2919 31.875 27.5C31.875 28.7081 32.8544 29.6875 34.0625 29.6875Z" fill="#698FF3"/>
<path d="M42.8125 26.4062H40.5266C40.2673 24.8787 39.4763 23.492 38.2934 22.4912C37.1105 21.4905 35.6119 20.9401 34.0625 20.9375L34.0384 20.9386C32.7198 19.1766 30.8994 17.8542 28.8161 17.1449C26.7328 16.4355 24.4837 16.3723 22.3638 16.9634C20.2439 17.5545 18.3521 18.7725 16.9364 20.4576C15.5208 22.1426 14.6474 24.2161 14.4308 26.4062H12.1875V28.5937H14.4297C14.6461 30.7841 15.5194 32.8579 16.9351 34.5433C18.3508 36.2286 20.2428 37.4467 22.363 38.0379C24.4831 38.6291 26.7324 38.5657 28.816 37.8561C30.8995 37.1465 32.7199 35.8238 34.0384 34.0614L34.0625 34.0625C35.6119 34.0598 37.1105 33.5095 38.2934 32.5087C39.4763 31.508 40.2673 30.1213 40.5266 28.5937H42.8125V26.4062ZM25.3125 18.75C26.4846 18.7517 27.6444 18.9894 28.7227 19.449C29.8009 19.9087 30.7756 20.5808 31.5884 21.4253C30.5556 21.8492 29.6476 22.5287 28.9496 23.4C28.2517 24.2714 27.7867 25.3058 27.5984 26.4062H16.6391C16.9075 24.294 17.936 22.3519 19.5323 20.9428C21.1285 19.5338 23.1833 18.7543 25.3125 18.75ZM25.3125 36.25C23.1833 36.2457 21.1285 35.4662 19.5323 34.0571C17.936 32.6481 16.9075 30.7059 16.6391 28.5937H27.5984C27.7868 29.6943 28.2519 30.7288 28.9501 31.6001C29.6483 32.4715 30.5565 33.1509 31.5895 33.5747C30.7765 34.4193 29.8017 35.0915 28.7233 35.5511C27.6448 36.0108 26.4848 36.2485 25.3125 36.25ZM34.0625 31.875C33.1972 31.875 32.3513 31.6184 31.6319 31.1377C30.9124 30.6569 30.3517 29.9736 30.0205 29.1742C29.6894 28.3748 29.6028 27.4951 29.7716 26.6465C29.9404 25.7978 30.3571 25.0182 30.9689 24.4064C31.5808 23.7945 32.3603 23.3779 33.209 23.209C34.0576 23.0402 34.9373 23.1269 35.7367 23.458C36.5362 23.7891 37.2194 24.3499 37.7002 25.0694C38.1809 25.7888 38.4375 26.6347 38.4375 27.5C38.4361 28.6599 37.9747 29.7718 37.1545 30.592C36.3343 31.4121 35.2224 31.8735 34.0625 31.875Z" fill="white"/>
</svg>
