<svg width="55" height="55" viewBox="0 0 55 55" fill="none" xmlns="http://www.w3.org/2000/svg">
<rect width="55" height="55" rx="12" fill="#698FF3"/>
<path d="M20.5 17.875V20.5H17C16.0717 20.5 15.1815 20.8687 14.5251 21.5251C13.8687 22.1815 13.5 23.0717 13.5 24V36.25C13.5 37.1783 13.8687 38.0685 14.5251 38.7249C15.1815 39.3813 16.0717 39.75 17 39.75H38.0053C38.9335 39.75 39.8237 39.3813 40.4801 38.7249C41.1365 38.0685 41.5053 37.1783 41.5053 36.25V24C41.5053 23.0717 41.1365 22.1815 40.4801 21.5251C39.8237 20.8687 38.9335 20.5 38.0053 20.5H34.5V17.875C34.5 17.1788 34.2234 16.5111 33.7312 16.0188C33.2389 15.5266 32.5712 15.25 31.875 15.25H23.125C22.4288 15.25 21.7611 15.5266 21.2688 16.0188C20.7766 16.5111 20.5 17.1788 20.5 17.875ZM23.125 17H31.875C32.1071 17 32.3296 17.0922 32.4937 17.2563C32.6578 17.4204 32.75 17.6429 32.75 17.875V20.5H22.25V17.875C22.25 17.6429 22.3422 17.4204 22.5063 17.2563C22.6704 17.0922 22.8929 17 23.125 17ZM17 22.25H38.0053C38.4694 22.25 38.9145 22.4344 39.2427 22.7626C39.5709 23.0908 39.7553 23.5359 39.7553 24V27.5H34.5V26.625C34.5 26.3929 34.4078 26.1704 34.2437 26.0063C34.0796 25.8422 33.8571 25.75 33.625 25.75C33.3929 25.75 33.1704 25.8422 33.0063 26.0063C32.8422 26.1704 32.75 26.3929 32.75 26.625V27.5H22.25V26.625C22.25 26.3929 22.1578 26.1704 21.9937 26.0063C21.8296 25.8422 21.6071 25.75 21.375 25.75C21.1429 25.75 20.9204 25.8422 20.7563 26.0063C20.5922 26.1704 20.5 26.3929 20.5 26.625V27.5H15.25V24C15.25 23.5359 15.4344 23.0908 15.7626 22.7626C16.0908 22.4344 16.5359 22.25 17 22.25ZM32.75 29.25V30.125C32.75 30.3571 32.8422 30.5796 33.0063 30.7437C33.1704 30.9078 33.3929 31 33.625 31C33.8571 31 34.0796 30.9078 34.2437 30.7437C34.4078 30.5796 34.5 30.3571 34.5 30.125V29.25H39.7553V36.25C39.7553 36.7141 39.5709 37.1592 39.2427 37.4874C38.9145 37.8156 38.4694 38 38.0053 38H17C16.5359 38 16.0908 37.8156 15.7626 37.4874C15.4344 37.1592 15.25 36.7141 15.25 36.25V29.25H20.5V30.125C20.5 30.3571 20.5922 30.5796 20.7563 30.7437C20.9204 30.9078 21.1429 31 21.375 31C21.6071 31 21.8296 30.9078 21.9937 30.7437C22.1578 30.5796 22.25 30.3571 22.25 30.125V29.25H32.75Z" fill="white"/>
</svg>
