<svg width="55" height="55" viewBox="0 0 55 55" fill="none" xmlns="http://www.w3.org/2000/svg">
<rect width="55" height="55" rx="12" fill="#698FF3"/>
<g clip-path="url(#clip0_273_30)">
<path d="M29.1818 25.9623C30.3782 25.8952 31.4743 25.7511 32.2425 25.5347H32.2478C32.5937 25.4384 32.8772 25.3229 33.0691 25.1934C33.194 25.1118 33.285 25.0202 33.3334 24.9245C33.5836 24.4246 33.3672 23.3052 32.8772 21.9886C32.459 20.8639 31.8389 19.5998 31.1377 18.4518C29.9652 16.5344 28.571 14.9583 27.5193 14.9583C26.3229 14.9583 24.857 16.5776 23.6751 18.5283M31.1377 36.548C29.9652 38.4654 28.571 40.0416 27.5193 40.0416C26.3275 40.0416 24.857 38.4223 23.6751 36.4716C22.9687 35.3038 22.3632 34.0111 21.9887 32.8771C21.5705 31.6369 21.4264 30.5799 21.7052 30.0753C21.777 29.9412 21.931 29.821 22.1468 29.7148C22.1468 29.7148 22.152 29.7148 22.1567 29.7102C22.2592 29.6593 22.3652 29.616 22.474 29.5807L22.4787 29.576C23.2376 29.3065 24.444 29.1292 25.7845 29.0475M36.4717 23.675C38.4224 24.8568 40.0417 26.3274 40.0417 27.5192C40.0417 28.5908 38.4031 30.0176 36.4379 31.2047C35.2893 31.8965 34.0258 32.5073 32.9157 32.9156C31.6423 33.3764 30.5655 33.5788 30.0755 33.3333C29.9792 33.2854 29.8882 33.1944 29.8065 33.069C29.677 32.8765 29.5615 32.5936 29.4653 32.2477C29.2495 31.4928 29.1095 30.4265 29.0424 29.2587M18.4566 31.1376C16.5392 29.9698 14.9584 28.5709 14.9584 27.5192C14.9584 26.3467 16.52 24.9053 18.428 23.7374C19.5906 23.0258 20.878 22.4109 22.022 22.0224C23.3053 21.5797 24.4055 21.4163 24.9246 21.7045C25.0541 21.7722 25.1696 21.9163 25.2752 22.1228C25.2752 22.1327 25.2799 22.1467 25.2898 22.1566C25.3376 22.2429 25.3715 22.3438 25.41 22.4494C25.4047 22.4547 25.41 22.464 25.4193 22.4739C25.6981 23.2474 25.876 24.487 25.9577 25.8613" stroke="white" stroke-width="2" stroke-linecap="round" stroke-linejoin="round"/>
<path d="M29.8111 27.1294C30.6955 27.9175 31.5553 28.5807 32.2425 28.9652H32.2477C32.5598 29.1431 32.8386 29.2627 33.0691 29.3064C33.2184 29.3402 33.3434 29.3402 33.4441 29.3064C33.9633 29.1332 34.5828 28.2302 35.1545 26.9999C35.669 25.8898 36.1444 24.5155 36.4711 23.175C37.0001 20.9933 37.1244 18.8887 36.3801 18.1437C35.5389 17.3032 33.3578 17.4087 31.1376 17.9512M23.6751 35.9716C21.4934 36.5001 19.3887 36.6249 18.6438 35.88C17.8032 35.0388 17.9088 32.8525 18.4566 30.6376C18.7686 29.3542 19.2347 28.0522 19.7492 26.9999C20.3448 25.7796 21.0081 24.8853 21.5797 24.722C21.7201 24.6843 21.9011 24.702 22.1228 24.7751C22.1327 24.7797 22.1467 24.7797 22.1566 24.7897C22.2529 24.8188 22.3538 24.8567 22.4594 24.9145C22.4641 24.9098 22.4687 24.9145 22.474 24.9192C23.209 25.2651 24.2036 26.01 25.2273 26.9182M27.577 24.7465C28.4275 23.7997 29.1386 22.8769 29.5183 22.1565C29.5183 22.1565 29.5183 22.1512 29.523 22.1512C29.6431 21.9208 29.7341 21.7137 29.7826 21.5317V21.5271C29.8403 21.3346 29.8496 21.1806 29.8065 21.0557C29.6286 20.5226 28.6771 19.8832 27.3991 19.3022C26.3082 18.8023 24.9771 18.3456 23.6751 18.0288C21.4934 17.4997 19.3887 17.3755 18.6438 18.1198C17.8172 18.9464 17.9041 21.0657 18.428 23.2374M27.3606 29.335C26.5486 30.2578 25.8713 31.1515 25.5056 31.8486C25.3807 32.0837 25.2897 32.3001 25.2466 32.4827C25.1981 32.6559 25.1882 32.8 25.2221 32.9149C25.3854 33.4726 26.2312 34.1166 27.3991 34.6976C28.4706 35.236 29.8111 35.7167 31.1376 36.048C33.3572 36.5911 35.5389 36.6967 36.3801 35.8555C37.1396 35.0972 36.9902 32.9295 36.4378 30.7047" stroke="white" stroke-width="2" stroke-linecap="round" stroke-linejoin="round"/>
<path d="M27.5193 29.8386C28.787 29.8386 29.8147 28.8109 29.8147 27.5432C29.8147 26.2755 28.787 25.2478 27.5193 25.2478C26.2516 25.2478 25.2239 26.2755 25.2239 27.5432C25.2239 28.8109 26.2516 29.8386 27.5193 29.8386Z" stroke="black" stroke-width="0.5" stroke-linecap="round" stroke-linejoin="round"/>
</g>
<defs>
<clipPath id="clip0_273_30">
<rect width="28" height="28" fill="white" transform="translate(13.5 13.5)"/>
</clipPath>
</defs>
</svg>
