<svg width="55" height="55" viewBox="0 0 55 55" fill="none" xmlns="http://www.w3.org/2000/svg">
<rect width="55" height="55" rx="12" fill="#698FF3"/>
<path d="M27.5 14.8274V27.4999C27.5 27.79 27.3848 28.0682 27.1796 28.2733C26.9745 28.4784 26.6963 28.5936 26.4062 28.5936C26.1162 28.5936 25.838 28.4784 25.6329 28.2733C25.4277 28.0682 25.3125 27.79 25.3125 27.4999V14.8274L22.8051 17.3362C22.5998 17.5414 22.3215 17.6567 22.0312 17.6567C21.741 17.6567 21.4627 17.5414 21.2574 17.3362C21.0522 17.131 20.9369 16.8526 20.9369 16.5624C20.9369 16.2721 21.0522 15.9938 21.2574 15.7886L25.6324 11.4136C25.734 11.3119 25.8546 11.2312 25.9874 11.1761C26.1202 11.1211 26.2625 11.0928 26.4062 11.0928C26.55 11.0928 26.6923 11.1211 26.8251 11.1761C26.9579 11.2312 27.0785 11.3119 27.1801 11.4136L31.5551 15.7886C31.7603 15.9938 31.8756 16.2721 31.8756 16.5624C31.8756 16.8526 31.7603 17.131 31.5551 17.3362C31.3498 17.5414 31.0715 17.6567 30.7812 17.6567C30.491 17.6567 30.2127 17.5414 30.0074 17.3362L27.5 14.8274ZM36.25 26.9011V23.1249C36.25 22.5447 36.0195 21.9883 35.6093 21.5781C35.1991 21.1679 34.6427 20.9374 34.0625 20.9374H31.875C31.5849 20.9374 31.3067 21.0526 31.1016 21.2577C30.8965 21.4629 30.7812 21.7411 30.7812 22.0311C30.7812 22.3212 30.8965 22.5994 31.1016 22.8045C31.3067 23.0097 31.5849 23.1249 31.875 23.1249H34.0625V34.1171C33.4102 33.4508 32.5372 33.0454 31.6073 32.9771C30.6774 32.9088 29.7545 33.1823 29.0119 33.7462C28.2693 34.31 27.758 35.1256 27.574 36.0397C27.3901 36.9538 27.546 37.9036 28.0127 38.7108L28.0455 38.7628L31.0889 43.4112C31.2477 43.654 31.4964 43.8237 31.7804 43.8831C32.0644 43.9424 32.3603 43.8865 32.603 43.7277C32.8458 43.5689 33.0155 43.3201 33.0749 43.0362C33.1342 42.7522 33.0784 42.4563 32.9195 42.2136L29.8939 37.5938C29.6795 37.2151 29.6242 36.7667 29.7404 36.3472C29.8565 35.9277 30.1345 35.5716 30.5133 35.3571C30.892 35.1426 31.3404 35.0874 31.7599 35.2035C32.1794 35.3197 32.5355 35.5977 32.75 35.9764C32.7596 35.9942 32.7705 36.012 32.7814 36.0284L34.2416 38.2583C34.3707 38.4551 34.5598 38.6051 34.7809 38.6858C35.002 38.7666 35.2432 38.7739 35.4688 38.7067C35.6943 38.6394 35.8922 38.5012 36.0329 38.3125C36.1737 38.1239 36.2498 37.8948 36.25 37.6595V29.6874C37.2809 30.6417 38.1043 31.7981 38.6688 33.0845C39.2333 34.3709 39.5269 35.7597 39.5312 37.1645V42.8124C39.5312 43.1025 39.6465 43.3807 39.8516 43.5858C40.0567 43.7909 40.3349 43.9061 40.625 43.9061C40.9151 43.9061 41.1933 43.7909 41.3984 43.5858C41.6035 43.3807 41.7188 43.1025 41.7188 42.8124V37.1591C41.7126 35.1329 41.211 33.1391 40.2579 31.3511C39.3047 29.5632 37.9288 28.0355 36.25 26.9011ZM20.9375 20.9374H18.75C18.1698 20.9374 17.6134 21.1679 17.2032 21.5781C16.793 21.9883 16.5625 22.5447 16.5625 23.1249V37.3436C16.5625 37.6337 16.6777 37.9119 16.8829 38.117C17.088 38.3221 17.3662 38.4374 17.6562 38.4374C17.9463 38.4374 18.2245 38.3221 18.4296 38.117C18.6348 37.9119 18.75 37.6337 18.75 37.3436V23.1249H20.9375C21.2276 23.1249 21.5058 23.0097 21.7109 22.8045C21.916 22.5994 22.0312 22.3212 22.0312 22.0311C22.0312 21.7411 21.916 21.4629 21.7109 21.2577C21.5058 21.0526 21.2276 20.9374 20.9375 20.9374Z" fill="white"/>
</svg>
