<svg width="616" height="530" viewBox="0 0 616 530" fill="none" xmlns="http://www.w3.org/2000/svg">
<g clip-path="url(#clip0_1_89)">
<circle cx="320" cy="434" r="350" fill="#F5919A" fill-opacity="0.1"/>
<circle cx="320" cy="429.852" r="296.074" fill="#AEC1F3" fill-opacity="0.1"/>
<circle cx="319.482" cy="434.518" r="242.667" fill="#8574D8" fill-opacity="0.1"/>
<circle cx="319.482" cy="434.518" r="242.477" stroke="#8574D8" stroke-opacity="0.1" stroke-width="0.378583"/>
<path d="M38.3142 529H577.686C598.294 529 615 512.294 615 491.686V88.3702C615 67.7621 598.294 51.0561 577.686 51.0561H333.028C318.653 51.0561 307 39.4029 307 25.028C307 11.7577 296.242 1 282.972 1H154.457H38.3142C17.7061 1 1 17.7061 1 38.3141V491.686C1 512.294 17.7061 529 38.3142 529Z" stroke="url(#paint0_linear_1_89)" stroke-width="2"/>
</g>
<defs>
<linearGradient id="paint0_linear_1_89" x1="0" y1="265" x2="616" y2="265" gradientUnits="userSpaceOnUse">
<stop offset="0.065" stop-color="#F72F41"/>
<stop offset="0.45" stop-color="#698FF3"/>
<stop offset="0.88" stop-color="#AEC1F3"/>
</linearGradient>
<clipPath id="clip0_1_89">
<rect width="616" height="530" fill="white"/>
</clipPath>
</defs>
</svg>
