<svg width="55" height="55" viewBox="0 0 55 55" fill="none" xmlns="http://www.w3.org/2000/svg">
<rect width="55" height="55" rx="12" fill="#698FF3"/>
<path d="M37.332 19.5113C36.9669 19.5142 36.609 19.4086 36.304 19.2078C35.999 19.007 35.7604 18.7201 35.6187 18.3836C35.4769 18.047 35.4383 17.6759 35.5078 17.3174C35.5773 16.9589 35.7517 16.6291 36.0089 16.3698C36.2661 16.1106 36.5945 15.9335 36.9524 15.8612C37.3104 15.7889 37.6818 15.8246 38.0195 15.9636C38.3571 16.1027 38.6459 16.339 38.8491 16.6424C39.0523 16.9458 39.1608 17.3028 39.1608 17.668C39.1612 18.1545 38.9691 18.6215 38.6265 18.967C38.2839 19.3125 37.8186 19.5084 37.332 19.5121M39.1608 14.0105H26.3311C25.8468 14.0128 25.383 14.2062 25.0405 14.5487C24.6981 14.8911 24.5047 15.3549 24.5024 15.8392V21.5049H33.4952V30.497H39.1608C39.6451 30.4947 40.1089 30.3012 40.4514 29.9588C40.7938 29.6163 40.9872 29.1525 40.9895 28.6682V15.84C40.9874 15.3555 40.7941 14.8915 40.4516 14.5489C40.1091 14.2063 39.6452 14.0128 39.1608 14.0105ZM28.1591 19.5113C27.7941 19.5116 27.4373 19.4036 27.1337 19.201C26.8301 18.9984 26.5934 18.7103 26.4536 18.3732C26.3138 18.036 26.2771 17.665 26.3483 17.307C26.4194 16.949 26.5951 16.6202 26.8532 16.3621C27.1113 16.104 27.4401 15.9283 27.7981 15.8571C28.1561 15.786 28.5272 15.8226 28.8643 15.9625C29.2015 16.1023 29.4896 16.3389 29.6922 16.6425C29.8948 16.9461 30.0027 17.303 30.0025 17.668C30.0026 17.9101 29.9549 18.1498 29.8623 18.3735C29.7697 18.5972 29.634 18.8005 29.4628 18.9716C29.2916 19.1428 29.0883 19.2786 28.8647 19.3712C28.641 19.4638 28.4012 19.5114 28.1591 19.5113ZM37.332 28.6697C36.9662 28.6725 36.6078 28.5665 36.3025 28.3651C35.9971 28.1637 35.7586 27.8759 35.6173 27.5385C35.476 27.2011 35.4382 26.8293 35.5089 26.4703C35.5796 26.1114 35.7554 25.7816 36.0141 25.523C36.2728 25.2643 36.6025 25.0884 36.9615 25.0178C37.3204 24.9471 37.6922 24.9848 38.0296 25.1262C38.367 25.2675 38.6548 25.506 38.8562 25.8114C39.0577 26.1167 39.1637 26.4751 39.1608 26.8409C39.1572 27.3248 38.9633 27.7879 38.6212 28.13C38.279 28.4722 37.8159 28.666 37.332 28.6697ZM15.8391 24.5025H28.6688C28.909 24.5023 29.1469 24.5495 29.3689 24.6413C29.5908 24.7331 29.7925 24.8678 29.9624 25.0377C30.1322 25.2075 30.2669 25.4092 30.3587 25.6312C30.4506 25.8531 30.4978 26.091 30.4976 26.3312V39.1609C30.4953 39.6452 30.3019 40.109 29.9594 40.4515C29.6169 40.794 29.1531 40.9874 28.6688 40.9897H15.8391C15.3548 40.9874 14.891 40.794 14.5485 40.4515C14.2061 40.109 14.0127 39.6452 14.0104 39.1609V26.3312C14.0127 25.8469 14.2061 25.3831 14.5485 25.0406C14.891 24.6982 15.3548 24.5048 15.8391 24.5025ZM22.2543 30.9177C21.8316 30.9179 21.422 31.0646 21.0953 31.3329C20.7687 31.6011 20.5451 31.9744 20.4628 32.389C20.3804 32.8036 20.4444 33.234 20.6437 33.6067C20.8431 33.9795 21.1655 34.2716 21.5561 34.4333C21.9467 34.595 22.3812 34.6163 22.7857 34.4935C23.1902 34.3707 23.5397 34.1115 23.7745 33.76C24.0093 33.4085 24.115 32.9865 24.0735 32.5658C24.0321 32.1451 23.8461 31.7518 23.5471 31.4529C23.2037 31.111 22.739 30.9186 22.2543 30.9177ZM17.6679 26.3312C17.347 26.3315 17.0318 26.4162 16.7539 26.5768C16.4761 26.7373 16.2453 26.9681 16.0848 27.246C15.9243 27.5239 15.8397 27.8391 15.8395 28.16C15.8392 28.4809 15.9233 28.7962 16.0834 29.0744C16.2455 29.3514 16.4763 29.5819 16.7535 29.7437C17.0316 29.9036 17.3467 29.9876 17.6675 29.9872C17.9882 29.9869 18.3032 29.9023 18.581 29.7419C18.8587 29.5815 19.0894 29.351 19.25 29.0733C19.4106 28.7957 19.4954 28.4807 19.4959 28.16C19.4936 27.6758 19.3003 27.2121 18.958 26.8697C18.6157 26.5272 18.1521 26.3337 17.6679 26.3312ZM26.8262 35.4896C26.4643 35.4893 26.1104 35.5963 25.8093 35.7972C25.5083 35.9981 25.2736 36.2838 25.1349 36.6181C24.9962 36.9524 24.9598 37.3203 25.0303 37.6753C25.1008 38.0303 25.275 38.3564 25.5309 38.6124C25.7867 38.8684 26.1128 39.0427 26.4677 39.1133C26.8227 39.184 27.1907 39.1477 27.525 39.0092C27.8594 38.8706 28.1452 38.636 28.3462 38.3351C28.5472 38.0341 28.6544 37.6802 28.6542 37.3183C28.6531 36.8363 28.4622 36.3741 28.1228 36.0318C27.7834 35.6896 27.3228 35.4947 26.8408 35.4896H26.8262Z" stroke="white" stroke-width="2" stroke-linecap="round" stroke-linejoin="round"/>
</svg>
