<svg width="27" height="26" viewBox="0 0 27 26" fill="none" xmlns="http://www.w3.org/2000/svg">
<path d="M13.2856 0.270996C6.2592 0.270996 0.556641 5.97356 0.556641 12.9999C0.556641 20.0263 6.2592 25.7289 13.2856 25.7289C20.312 25.7289 26.0145 20.0263 26.0145 12.9999C26.0145 5.97356 20.312 0.270996 13.2856 0.270996ZM19.1918 8.92667C19.0009 10.9378 18.1735 15.8258 17.7534 18.0788C17.5752 19.0334 17.2188 19.3517 16.8879 19.3899C16.1496 19.4535 15.5895 18.9062 14.8767 18.4352C13.7565 17.6969 13.1201 17.2387 12.0381 16.5258C10.778 15.6985 11.5926 15.2402 12.3182 14.5019C12.5091 14.311 15.7677 11.3452 15.8314 11.0779C15.8402 11.0374 15.839 10.9953 15.8279 10.9554C15.8168 10.9155 15.7962 10.8789 15.7677 10.8487C15.6913 10.7851 15.5895 10.8106 15.5004 10.8233C15.3859 10.8487 13.6038 12.0325 10.1288 14.3747C9.61964 14.7183 9.1614 14.8965 8.75408 14.8838C8.29583 14.8711 7.43027 14.6292 6.78109 14.4128C5.97917 14.1583 5.35545 14.0182 5.40637 13.5727C5.43182 13.3436 5.75005 13.1145 6.34831 12.8726C10.0652 11.2561 12.5346 10.1868 13.7693 9.67768C17.3079 8.20112 18.0335 7.94654 18.5172 7.94654C18.619 7.94654 18.8609 7.972 19.0136 8.09929C19.1409 8.20112 19.1791 8.34114 19.1918 8.44297C19.1791 8.51935 19.2045 8.74847 19.1918 8.92667Z" fill="#04060B"/>
</svg>
